<?xml version="1.0" encoding="UTF-8" standalone="no"?>
<!-- Created with Inkscape (http://www.inkscape.org/) -->

<svg
   xmlns:dc="http://purl.org/dc/elements/1.1/"
   xmlns:cc="http://creativecommons.org/ns#"
   xmlns:rdf="http://www.w3.org/1999/02/22-rdf-syntax-ns#"
   xmlns:svg="http://www.w3.org/2000/svg"
   xmlns="http://www.w3.org/2000/svg"
   xmlns:sodipodi="http://sodipodi.sourceforge.net/DTD/sodipodi-0.dtd"
   xmlns:inkscape="http://www.inkscape.org/namespaces/inkscape"
   id="svg2"
   version="1.1"
   inkscape:version="0.48.3.1 r9886"
   width="499.5"
   height="204.35"
   xml:space="preserve"
   sodipodi:docname="Logo.eps"><metadata
     id="metadata8"><rdf:RDF><cc:Work
         rdf:about=""><dc:format>image/svg+xml</dc:format><dc:type
           rdf:resource="http://purl.org/dc/dcmitype/StillImage" /><dc:title></dc:title></cc:Work></rdf:RDF></metadata><defs
     id="defs6"><clipPath
       clipPathUnits="userSpaceOnUse"
       id="clipPath18"><path
         d="m 310.191,950.672 c 0,-35.207 23.477,-46.942 78.801,-72.09 l 33.543,-15.098 c 78.793,-35.207 187.781,-92.214 187.781,-259.894 0,-268.258 -199.523,-301.789 -342.046,-301.789 -92.215,0 -189.4614,21.789 -254.8559,41.91 l 0,229.711 C 70.4258,558.32 169.352,534.859 212.945,534.859 c 48.621,0 85.508,6.7 85.508,50.301 0,33.531 -23.473,48.629 -75.457,72.094 l -40.238,18.449 C 107.309,710.906 0,771.27 0,933.91 c 0,238.09 186.113,290.06 342.047,290.06 117.367,0 194.496,-26.82 234.734,-41.92 l 0,-222.991 c -46.945,15.089 -142.511,35.207 -199.519,35.207 -38.567,0 -67.071,-10.059 -67.071,-43.594 z M 1133.54,543.238 c 20.11,0 90.53,10.063 114,13.41 l 0,-226.359 c -48.62,-11.73 -155.92,-28.488 -226.35,-28.488 -90.542,0 -259.885,10.051 -259.885,256.519 l 0,446 -117.367,0 0,202.89 117.367,0 40.238,201.2 278.327,67.07 0,-268.27 167.67,0 -41.91,-202.89 -125.76,0 0,-388.992 c 0,-60.348 18.45,-72.09 53.67,-72.09 z m 605.34,414.145 c -50.3,0 -88.87,-20.121 -105.63,-30.176 l 0,-608.648 -318.57,0 0,888.651 253.18,0 46.94,-85.51 c 18.45,55.33 68.74,102.27 142.52,102.27 50.3,0 83.84,-10.05 98.93,-18.44 l 0,-264.909 c -31.86,8.379 -73.77,16.762 -117.37,16.762 z m 192.9,-638.824 0,888.651 318.58,0 0,-888.651 -318.58,0 z m 159.28,997.631 c -88.86,0 -157.6,72.1 -157.6,159.29 0,87.19 68.74,159.29 157.6,159.29 88.87,0 157.62,-72.1 157.62,-159.29 0,-87.19 -68.75,-159.29 -157.62,-159.29 z M 2815.44,301.801 c -40.23,0 -82.15,11.73 -112.32,18.437 l 0,-320.238 -318.58,0 0,1207.21 258.2,0 46.96,-55.33 c 48.61,43.59 117.36,72.09 189.46,72.09 130.78,0 285.04,-36.88 285.04,-456.06 0,-459.41 -231.39,-466.109 -348.76,-466.109 z m -36.88,687.441 c -18.44,0 -55.33,-15.094 -75.44,-26.836 l 0,-429.226 c 15.07,-5.032 41.91,-8.379 53.65,-8.379 55.33,0 88.86,46.937 88.86,243.109 0,199.535 -15.09,221.332 -67.07,221.332 z m 786.5,-331.988 c 0,-95.574 46.94,-114.016 125.75,-114.016 90.54,0 212.93,26.84 259.88,35.223 l 0,-231.391 c -36.88,-13.422 -149.22,-45.269 -259.88,-45.269 -199.53,0 -442.66,31.847 -442.66,457.73 0,375.579 191.16,464.439 392.36,464.439 206.23,0 355.46,-105.63 355.46,-461.079 l 0,-105.637 -430.91,0 z m 75.45,377.256 c -80.49,0 -72.1,-98.924 -75.45,-204.561 l 134.13,0 c 0,119.051 0,204.561 -58.68,204.561 z"
         id="path20" /></clipPath><linearGradient
       x1="0"
       y1="0"
       x2="1"
       y2="0"
       gradientUnits="userSpaceOnUse"
       gradientTransform="matrix(-7.15e-6,-163.478,-163.478,7.15e-6,199.798,163.477)"
       spreadMethod="pad"
       id="linearGradient22"><stop
         style="stop-opacity:1;stop-color:#393536"
         offset="0"
         id="stop24" /><stop
         style="stop-opacity:1;stop-color:#231f20"
         offset="1"
         id="stop26" /></linearGradient></defs><sodipodi:namedview
     pagecolor="#ffffff"
     bordercolor="#666666"
     borderopacity="1"
     objecttolerance="10"
     gridtolerance="10"
     guidetolerance="10"
     inkscape:pageopacity="0"
     inkscape:pageshadow="2"
     inkscape:window-width="1178"
     inkscape:window-height="679"
     id="namedview4"
     showgrid="false"
     inkscape:zoom="0.72272272"
     inkscape:cx="249.75"
     inkscape:cy="102.175"
     inkscape:window-x="310"
     inkscape:window-y="147"
     inkscape:window-maximized="0"
     inkscape:current-layer="g10" /><g
     id="g10"
     inkscape:groupmode="layer"
     inkscape:label="ink_ext_XXXXXX"
     transform="matrix(1.25,0,0,-1.25,0,204.35)"><g
       id="g12"
       transform="scale(0.1,0.1)"><g
         id="g14"><g
           id="g16"
           clip-path="url(#clipPath18)"><path
             d="m 310.191,950.672 c 0,-35.207 23.477,-46.942 78.801,-72.09 l 33.543,-15.098 c 78.793,-35.207 187.781,-92.214 187.781,-259.894 0,-268.258 -199.523,-301.789 -342.046,-301.789 -92.215,0 -189.4614,21.789 -254.8559,41.91 l 0,229.711 C 70.4258,558.32 169.352,534.859 212.945,534.859 c 48.621,0 85.508,6.7 85.508,50.301 0,33.531 -23.473,48.629 -75.457,72.094 l -40.238,18.449 C 107.309,710.906 0,771.27 0,933.91 c 0,238.09 186.113,290.06 342.047,290.06 117.367,0 194.496,-26.82 234.734,-41.92 l 0,-222.991 c -46.945,15.089 -142.511,35.207 -199.519,35.207 -38.567,0 -67.071,-10.059 -67.071,-43.594 z M 1133.54,543.238 c 20.11,0 90.53,10.063 114,13.41 l 0,-226.359 c -48.62,-11.73 -155.92,-28.488 -226.35,-28.488 -90.542,0 -259.885,10.051 -259.885,256.519 l 0,446 -117.367,0 0,202.89 117.367,0 40.238,201.2 278.327,67.07 0,-268.27 167.67,0 -41.91,-202.89 -125.76,0 0,-388.992 c 0,-60.348 18.45,-72.09 53.67,-72.09 z m 605.34,414.145 c -50.3,0 -88.87,-20.121 -105.63,-30.176 l 0,-608.648 -318.57,0 0,888.651 253.18,0 46.94,-85.51 c 18.45,55.33 68.74,102.27 142.52,102.27 50.3,0 83.84,-10.05 98.93,-18.44 l 0,-264.909 c -31.86,8.379 -73.77,16.762 -117.37,16.762 z m 192.9,-638.824 0,888.651 318.58,0 0,-888.651 -318.58,0 z m 159.28,997.631 c -88.86,0 -157.6,72.1 -157.6,159.29 0,87.19 68.74,159.29 157.6,159.29 88.87,0 157.62,-72.1 157.62,-159.29 0,-87.19 -68.75,-159.29 -157.62,-159.29 z M 2815.44,301.801 c -40.23,0 -82.15,11.73 -112.32,18.437 l 0,-320.238 -318.58,0 0,1207.21 258.2,0 46.96,-55.33 c 48.61,43.59 117.36,72.09 189.46,72.09 130.78,0 285.04,-36.88 285.04,-456.06 0,-459.41 -231.39,-466.109 -348.76,-466.109 z m -36.88,687.441 c -18.44,0 -55.33,-15.094 -75.44,-26.836 l 0,-429.226 c 15.07,-5.032 41.91,-8.379 53.65,-8.379 55.33,0 88.86,46.937 88.86,243.109 0,199.535 -15.09,221.332 -67.07,221.332 z m 786.5,-331.988 c 0,-95.574 46.94,-114.016 125.75,-114.016 90.54,0 212.93,26.84 259.88,35.223 l 0,-231.391 c -36.88,-13.422 -149.22,-45.269 -259.88,-45.269 -199.53,0 -442.66,31.847 -442.66,457.73 0,375.579 191.16,464.439 392.36,464.439 206.23,0 355.46,-105.63 355.46,-461.079 l 0,-105.637 -430.91,0 z m 75.45,377.256 c -80.49,0 -72.1,-98.924 -75.45,-204.561 l 134.13,0 c 0,119.051 0,204.561 -58.68,204.561"
             style="fill:url(#linearGradient22);fill-opacity:1;fill-rule:nonzero;stroke:none"
             id="path28" /></g></g></g></g></svg>